# xmcd
#
# Track frame offsets: 
#        150
#        23204
#        38375
#        59672
#        78400
#        104312
#        118354
#        131017
#        158179
#        176798
#        196921
#
# Disc length: 2785 seconds
#
# Revision: 2
# Processed by: cddbd v1.5.2PL0 Copyright (c) Steve Scherf et al.
# Submitted via: ExactAudioCopy v1.0b3
#
DISCID=940adf0b
DTITLE=Ruby Hayes - Ruby's Blues
DYEAR=2003
DGENRE=Blues -  Blues Female Vocalist
TTITLE0=Someone Else is Stepping In
TTITLE1=The Little Red Rooster
TTITLE2=I Got My MoJo Working
TTITLE3=One Scotch, One Bourbon, One Beer
TTITLE4=At Last
TTITLE5=You?ve Been a Good Old Wagon
TTITLE6=Trouble in Mind
TTITLE7=St. Louis Blues
TTITLE8=Do Your Duty
TTITLE9=Stormy Monday
TTITLE10=Everyday I Have the Blues
EXTD=
EXTT0=
EXTT1=
EXTT2=
EXTT3=
EXTT4=
EXTT5=
EXTT6=
EXTT7=
EXTT8=
EXTT9=
EXTT10=
PLAYORDER=
